<?xml version="1.0" encoding="utf-8"?>
<!-- Generator: Adobe Illustrator 24.0.0, SVG Export Plug-In . SVG Version: 6.00 Build 0)  -->
<svg version="1.1" id="Capa_1" xmlns="http://www.w3.org/2000/svg" xmlns:xlink="http://www.w3.org/1999/xlink" x="0px" y="0px"
	 viewBox="0 0 825.7 819.5" style="enable-background:new 0 0 825.7 819.5;" xml:space="preserve">
<style type="text/css">
	.st0{fill:none;stroke:#393E46;stroke-width:9;stroke-miterlimit:10;}
	.st1{fill:none;stroke:#393E46;stroke-miterlimit:10;}
	.st2{fill:none;stroke:#393E46;stroke-width:17;stroke-linecap:round;stroke-miterlimit:10;}
	.st3{fill:#393E46;}
	.st4{fill:none;stroke:#393E46;stroke-width:8;stroke-linejoin:round;stroke-miterlimit:10;}
	.st5{fill:none;stroke:#393E46;stroke-width:2;stroke-linecap:round;stroke-miterlimit:10;}
	.st6{fill:none;stroke:#393E46;stroke-width:0.5;stroke-miterlimit:10;}
</style>
<path class="st0" d="M368.3,378.3H20.5c-5.4,0-9.8-4.4-9.8-9.8V20.7c0-5.4,4.4-9.8,9.8-9.8h347.8c5.4,0,9.8,4.4,9.8,9.8v347.8
	C378,373.9,373.7,378.3,368.3,378.3z"/>
<line class="st0" x1="378" y1="83.2" x2="10.7" y2="83.2"/>
<path class="st0" d="M263.1,808.5H125.7c-16.2,0-29.3-13.1-29.3-29.3V470.5c0-16.2,13.1-29.3,29.3-29.3h137.5
	c16.2,0,29.3,13.1,29.3,29.3v308.7C292.4,795.4,279.3,808.5,263.1,808.5z"/>
<line class="st1" x1="248.3" y1="487" x2="140.4" y2="487"/>
<line class="st2" x1="232.4" y1="445.6" x2="156.3" y2="445.6"/>
<path class="st0" d="M805.3,808.5H457.5c-5.4,0-9.8-4.4-9.8-9.8V451c0-5.4,4.4-9.8,9.8-9.8h347.8c5.4,0,9.8,4.4,9.8,9.8v347.8
	C815,804.1,810.7,808.5,805.3,808.5z"/>
<line class="st0" x1="714.8" y1="513.4" x2="447.7" y2="513.4"/>
<line class="st0" x1="815" y1="513.4" x2="801.1" y2="513.4"/>
<circle class="st3" cx="537.1" cy="476.4" r="13.8"/>
<circle class="st3" cx="483.5" cy="476.4" r="13.9"/>
<circle class="st3" cx="537.1" cy="48.8" r="13.8"/>
<circle class="st3" cx="483.5" cy="48.8" r="13.9"/>
<circle class="st3" cx="110.7" cy="48.8" r="13.9"/>
<circle class="st3" cx="57.1" cy="48.8" r="13.9"/>
<path class="st0" d="M805.1,378.3H457.3c-5.4,0-9.8-4.4-9.8-9.8V20.7c0-5.4,4.4-9.8,9.8-9.8h347.8c5.4,0,9.8,4.4,9.8,9.8v347.8
	C814.9,373.9,810.5,378.3,805.1,378.3z"/>
<line class="st0" x1="814.9" y1="83.2" x2="447.5" y2="83.2"/>
<path class="st3" d="M589,263.9l-81.9-36.1V216l81.9-41v19.8L532.6,221l56.4,23.2V263.9z"/>
<path class="st3" d="M665.3,160l-45,120.6h-22.9l45-120.6H665.3z"/>
<path class="st3" d="M673.4,244.2l56.4-23.2l-56.4-26.2V175l81.9,40.9v11.8l-81.9,36.1V244.2z"/>
<path class="st4" d="M801.1,513.4c0,4.7-1.4,9.4-4.5,13.4l-161.5,215l-63.2,23l4.5-67.1l161.5-215c7.4-9.8,21.3-11.8,31-4.4
	l23.3,17.5C798,500.1,801,506.7,801.1,513.4"/>
<line class="st4" x1="721.2" y1="504.8" x2="780" y2="548.9"/>
<polyline class="st5" points="49.7,319.9 100.7,258.1 122.4,283.8 181.9,200.6 218.9,234.8 299,153.4 299,191.4 342,133.2 "/>
<line class="st6" x1="43.2" y1="342" x2="342" y2="342"/>
</svg>
