<?xml version="1.0" standalone="no"?>
<!DOCTYPE svg PUBLIC "-//W3C//DTD SVG 20010904//EN"
 "http://www.w3.org/TR/2001/REC-SVG-20010904/DTD/svg10.dtd">
<svg version="1.0" xmlns="http://www.w3.org/2000/svg"
 width="1000.000000pt" height="700.000000pt" viewBox="0 0 1000.000000 700.000000"
 preserveAspectRatio="xMidYMid meet">

<g transform="translate(0.000000,700.000000) scale(0.100000,-0.100000)"
fill="#000000" stroke="none">
<path d="M8222 6980 c0 -14 2 -19 5 -12 2 6 2 18 0 25 -3 6 -5 1 -5 -13z"/>
<path d="M8219 6944 c-3 -36 1 -349 5 -389 3 -27 8 -78 12 -112 3 -35 10 -63
14 -63 5 0 6 28 4 63 -3 34 -8 112 -13 172 -5 61 -9 159 -10 220 -1 60 -4 111
-7 114 -2 2 -4 0 -5 -5z"/>
<path d="M6507 6356 c-4 -10 -5 -21 -2 -24 9 -9 17 6 13 25 -3 17 -4 17 -11
-1z"/>
<path d="M8252 6340 c0 -19 2 -27 5 -17 2 9 2 25 0 35 -3 9 -5 1 -5 -18z"/>
<path d="M6465 6280 c-3 -5 -1 -10 4 -10 6 0 11 5 11 10 0 6 -2 10 -4 10 -3 0
-8 -4 -11 -10z"/>
<path d="M6430 6205 c0 -8 5 -15 10 -15 6 0 10 7 10 15 0 8 -4 15 -10 15 -5 0
-10 -7 -10 -15z"/>
<path d="M6320 6091 c0 -4 -11 -20 -25 -35 -24 -26 -26 -46 -4 -46 6 0 7 5 4
10 -8 13 34 60 53 60 7 0 10 5 7 10 -8 12 -35 13 -35 1z"/>
<path d="M6250 5997 c0 -7 -13 -26 -30 -42 -16 -16 -30 -35 -30 -42 0 -7 -3
-13 -7 -13 -5 0 -17 -14 -28 -30 -11 -16 -26 -30 -33 -30 -8 0 -12 -5 -10 -12
9 -25 27 -17 59 24 18 24 46 56 61 72 15 17 28 35 28 42 0 7 4 14 9 16 5 2 3
9 -5 16 -11 10 -14 10 -14 -1z"/>
<path d="M6080 5770 c-12 -16 -27 -30 -34 -30 -7 0 -56 -45 -109 -99 -73 -75
-93 -100 -81 -105 11 -4 49 27 124 101 60 59 106 111 103 116 -3 4 4 11 16 14
12 3 21 12 21 19 0 23 -17 16 -40 -16z"/>
<path d="M5823 5523 c1 -5 -2 -9 -6 -10 -4 -1 -15 -9 -23 -18 -13 -12 -13 -19
-4 -30 10 -12 16 -10 37 15 13 16 22 34 18 40 -7 12 -26 14 -22 3z"/>
<path d="M5750 5450 c-6 -11 -17 -20 -26 -20 -8 0 -14 -6 -12 -14 2 -7 -8 -23
-22 -34 -19 -16 -21 -21 -9 -22 9 0 24 9 34 20 10 11 22 20 27 20 16 0 49 42
44 56 -8 20 -23 17 -36 -6z"/>
<path d="M5623 5346 c-13 -6 -23 -14 -23 -18 0 -5 -6 -8 -13 -8 -7 0 -20 -8
-29 -17 -24 -26 -46 -43 -55 -43 -4 -1 -24 -15 -43 -32 -19 -17 -29 -27 -21
-23 7 4 16 2 20 -4 7 -10 101 48 143 89 39 37 61 51 74 46 8 -3 14 -1 14 3 0
9 -26 22 -38 20 -4 -1 -17 -6 -29 -13z"/>
<path d="M5350 5160 c-9 -6 -10 -10 -3 -10 6 0 15 5 18 10 8 12 4 12 -15 0z"/>
<path d="M5300 5130 c-9 -6 -10 -10 -3 -10 6 0 15 5 18 10 8 12 4 12 -15 0z"/>
<path d="M3206 5123 c-13 -14 -5 -51 22 -94 35 -53 68 -84 76 -71 3 6 -1 12
-9 15 -14 6 -14 54 0 77 10 17 -74 87 -89 73z"/>
<path d="M5260 5110 c-9 -6 -10 -10 -3 -10 6 0 15 5 18 10 8 12 4 12 -15 0z"/>
<path d="M5159 5049 c-19 -16 -20 -19 -6 -15 10 3 22 6 27 6 4 0 10 7 14 15 8
21 -8 19 -35 -6z"/>
<path d="M5093 5018 c-13 -6 -23 -14 -23 -18 0 -4 -16 -11 -35 -14 -19 -4 -35
-11 -35 -16 0 -4 8 -7 18 -5 62 13 72 17 72 30 0 8 3 14 8 14 22 -4 42 2 37
11 -7 12 -13 12 -42 -2z"/>
<path d="M3315 4920 c3 -5 8 -10 11 -10 2 0 4 5 4 10 0 6 -5 10 -11 10 -5 0
-7 -4 -4 -10z"/>
<path d="M4790 4886 c0 -2 7 -6 15 -10 8 -3 15 -1 15 4 0 6 -7 10 -15 10 -8 0
-15 -2 -15 -4z"/>
<path d="M5040 4570 c-8 -5 -10 -10 -5 -10 6 0 17 5 25 10 8 5 11 10 5 10 -5
0 -17 -5 -25 -10z"/>
<path d="M5085 4550 c-3 -5 1 -10 9 -10 8 0 18 5 21 10 3 6 -1 10 -9 10 -8 0
-18 -4 -21 -10z"/>
<path d="M5005 4500 c-36 -37 -38 -40 -17 -40 13 0 21 4 18 9 -3 5 10 19 28
32 19 13 32 27 30 31 -9 14 -18 9 -59 -32z"/>
<path d="M4960 4490 c0 -5 5 -10 10 -10 6 0 10 5 10 10 0 6 -4 10 -10 10 -5 0
-10 -4 -10 -10z"/>
<path d="M9824 4430 c-29 -17 -58 -38 -65 -47 -12 -14 -10 -15 21 -8 50 10
100 43 100 66 0 10 -1 19 -2 19 -2 0 -26 -14 -54 -30z"/>
<path d="M8146 3185 c-10 -8 -24 -16 -29 -18 -6 -2 38 -89 97 -193 205 -357
329 -569 341 -582 10 -11 18 -10 43 5 38 21 38 25 11 70 -12 19 -19 36 -17 38
3 3 26 -2 52 -11 92 -31 205 -4 275 67 58 58 76 104 76 199 0 74 -4 93 -31
150 -84 176 -273 257 -429 184 -84 -40 -145 -122 -145 -197 0 -10 -4 -16 -8
-13 -5 3 -49 75 -98 161 -54 93 -95 155 -104 155 -8 0 -24 -7 -34 -15z m602
-181 c150 -75 202 -282 96 -387 -81 -81 -223 -75 -311 12 -51 51 -83 126 -83
192 0 69 12 104 48 143 64 68 162 84 250 40z"/>
<path d="M7145 2800 c3 -5 8 -10 11 -10 2 0 4 5 4 10 0 6 -5 10 -11 10 -5 0
-7 -4 -4 -10z"/>
<path d="M7957 2786 c-98 -35 -168 -116 -187 -215 -27 -143 61 -311 199 -378
48 -24 68 -28 141 -28 76 0 92 4 145 32 33 17 74 46 92 65 39 41 72 112 73
156 0 27 -4 32 -22 32 -51 0 -64 -10 -77 -58 -14 -55 -76 -117 -130 -132 -54
-15 -128 -12 -164 6 -37 19 -107 83 -107 99 0 5 95 60 210 120 131 68 210 116
210 125 0 8 -20 40 -44 71 -61 78 -143 119 -235 119 -36 -1 -83 -7 -104 -14z
m171 -90 c45 -23 100 -71 91 -80 -10 -10 -330 -176 -338 -176 -14 0 -25 83
-16 127 15 85 94 153 178 153 21 0 59 -11 85 -24z"/>
<path d="M7595 2596 c-33 -18 -61 -39 -63 -47 -2 -14 79 -364 93 -401 15 -39
-19 -11 -174 138 l-161 156 -65 -32 c-69 -34 -71 -38 -55 -105 6 -22 12 -54
15 -70 2 -17 11 -63 20 -103 18 -90 20 -142 3 -142 -7 0 -69 57 -138 125 -69
69 -130 125 -137 125 -18 0 -144 -71 -141 -79 2 -4 30 -31 63 -61 90 -80 272
-249 327 -302 30 -29 46 -53 42 -59 -4 -7 -3 -9 4 -5 14 9 20 -23 10 -54 -7
-19 -5 -27 9 -38 15 -10 15 -14 4 -21 -8 -5 -11 -16 -8 -25 3 -8 2 -18 -4 -21
-15 -10 0 -25 19 -18 16 7 16 5 1 -18 -14 -20 -14 -26 -3 -37 8 -7 13 -32 12
-58 0 -29 4 -49 13 -55 9 -6 10 -9 2 -9 -8 0 -9 -9 -3 -29 5 -17 4 -31 0 -33
-5 -2 -5 -19 -1 -40 5 -22 5 -36 0 -32 -12 7 -11 -3 2 -27 7 -15 7 -29 0 -51
-9 -26 -9 -29 6 -24 15 6 15 5 0 -12 -16 -17 -16 -20 -3 -25 13 -5 14 -12 6
-33 -6 -15 -7 -31 -2 -38 5 -6 12 -24 14 -39 4 -21 2 -27 -8 -23 -18 7 -18 2
2 -36 15 -29 15 -30 -1 -25 -17 7 -13 -5 12 -34 17 -20 7 -69 -13 -69 -8 0
-14 -5 -14 -10 0 -6 3 -9 8 -9 22 4 32 -3 32 -21 0 -14 -5 -18 -17 -13 -11 4
-14 3 -9 -6 5 -7 1 -18 -10 -26 -14 -10 -16 -17 -8 -25 7 -7 14 -3 24 15 7 14
20 25 28 25 10 0 5 -10 -14 -27 -16 -15 -36 -26 -44 -24 -11 2 -10 -2 4 -18
19 -21 19 -22 1 -35 -16 -12 -16 -13 -1 -19 19 -8 21 -27 2 -27 -17 0 -18 -48
-2 -67 41 -46 46 -59 21 -49 -10 3 -15 -1 -16 -14 -4 -65 -3 -98 3 -94 4 3 10
-7 14 -21 12 -46 32 -20 25 33 -1 6 4 12 11 12 9 1 8 4 -3 13 -21 16 -34 57
-19 57 6 0 8 -5 4 -11 -4 -7 1 -10 11 -7 24 4 29 98 5 98 -11 1 -10 4 5 16 17
12 18 18 7 34 -10 17 -10 21 2 26 11 4 12 13 6 34 -6 19 -5 30 3 33 8 2 12 54
12 168 0 90 4 170 9 177 4 7 3 19 -4 27 -7 8 -9 15 -5 15 4 0 2 7 -5 15 -9 10
-9 15 -1 15 13 0 15 66 2 74 -5 3 -6 26 -3 51 2 25 0 45 -5 45 -5 0 -10 17
-10 38 -1 20 -2 45 -2 55 0 9 0 27 0 40 0 55 -3 77 -9 73 -4 -2 -8 19 -8 47
-1 29 -4 82 -8 119 l-7 66 61 37 c44 27 59 42 56 53 -6 20 -96 404 -96 410 0
8 55 -40 185 -164 75 -71 141 -131 146 -132 19 -7 139 63 139 80 0 10 -8 55
-19 100 -10 46 -38 185 -62 310 -24 125 -48 228 -54 228 -5 0 -37 -15 -70 -34z"/>
<path d="M7176 2585 c4 -8 8 -15 10 -15 2 0 4 7 4 15 0 8 -4 15 -10 15 -5 0
-7 -7 -4 -15z"/>
<path d="M7183 2550 c-25 -10 -31 -27 -9 -27 7 0 18 9 25 19 6 10 10 18 9 17
-2 0 -13 -4 -25 -9z"/>
<path d="M7181 2461 c-15 -10 -4 -20 29 -26 24 -5 25 1 6 21 -17 16 -17 16
-35 5z"/>
<path d="M6553 2061 c-109 -40 -186 -116 -219 -213 -23 -69 -16 -188 14 -249
31 -63 102 -133 170 -166 50 -24 69 -28 147 -28 81 0 96 3 150 32 74 38 136
98 167 161 19 38 23 63 23 132 0 74 -4 93 -29 145 -36 73 -104 143 -170 175
-68 33 -181 38 -253 11z m189 -170 c62 -39 103 -120 96 -190 -16 -160 -214
-193 -313 -53 -26 38 -30 52 -30 110 0 53 5 73 22 98 49 69 147 84 225 35z"/>
<path d="M6175 1856 c-50 -22 -94 -73 -101 -117 -9 -51 -19 -56 -40 -19 -10
16 -24 30 -31 30 -7 0 -39 -15 -72 -33 l-60 -33 55 -99 c163 -293 258 -455
268 -455 17 1 130 67 134 79 2 5 -27 61 -64 123 -93 157 -114 201 -114 240 0
47 36 97 87 122 34 17 42 25 38 42 -7 34 -54 134 -62 134 -5 -1 -22 -7 -38
-14z"/>
<path d="M5718 1606 c-74 -41 -74 -41 -54 -72 21 -32 17 -38 -18 -24 -112 42
-277 -47 -326 -176 -33 -88 -21 -207 29 -288 26 -41 98 -109 139 -130 140 -72
314 -19 382 116 l30 61 26 -58 c44 -95 22 -167 -67 -213 -43 -23 -89 -25 -144
-8 -15 4 -35 -8 -80 -50 -58 -53 -59 -55 -40 -70 36 -27 125 -47 187 -41 73 6
172 52 230 105 81 75 115 184 89 289 -12 47 -308 594 -320 592 -3 -1 -32 -16
-63 -33z m-1 -243 c56 -36 87 -94 87 -160 0 -116 -118 -187 -226 -134 -52 25
-82 62 -98 120 -38 141 115 253 237 174z"/>
<path d="M7290 861 c0 -5 5 -13 10 -16 6 -3 10 -2 10 4 0 5 -4 13 -10 16 -5 3
-10 2 -10 -4z"/>
</g>
</svg>
